<svg xmlns="http://www.w3.org/2000/svg" width="227" height="70" viewBox="0 0 227 70" fill="none">
    <g clip-path="url(#clip0_1534_1820)">
        <path
            d="M64.1058 10.5656L54.442 0H54.0669H10.0385H9.6634L0 10.5669L0.508571 11.4929C0.558122 11.5849 5.50943 20.7495 4.19718 29.7711C4.03867 30.869 3.81953 31.9839 3.58697 33.1641C3.01931 36.0562 2.375 39.333 2.28882 43.8736C2.25128 56.6807 17.7097 61.0839 18.2958 61.2434C18.3722 61.269 26.0621 63.8485 31.164 69.0701L32.0528 70L32.9414 69.0701C38.0446 63.8485 45.7329 61.269 45.7379 61.2651C46.3964 61.0839 61.8546 56.6807 61.8163 43.8497C61.7305 39.333 61.0867 36.0562 60.5181 33.1641C60.2865 31.9839 60.0675 30.869 59.9079 29.7705C58.5954 20.7495 63.5472 11.5849 63.5973 11.4928L64.1058 10.5656Z"
            fill="#3F4A63"></path>
        <path
            d="M57.7981 30.0729C57.8849 30.6701 57.981 31.2348 58.083 31.7905C58.163 32.2267 58.2925 32.8859 58.4265 33.567L58.4239 33.5674L58.4274 33.5716C58.9769 36.3709 59.6 39.5452 59.6829 43.8689V43.8824C59.7152 54.8413 45.8938 59.0208 45.1358 59.2432L45.1365 59.245C44.9321 59.3122 41.8891 60.3297 38.3054 62.3915C36.4586 63.4541 34.4636 64.7975 32.6333 66.4371L32.053 66.9566L31.4728 66.4371C29.6339 64.7898 27.6276 63.4409 25.7697 62.3747C22.2845 60.3746 19.3233 59.3612 18.9354 59.2333L18.935 59.2345C18.8632 59.214 15.2614 58.1818 11.6853 55.7974C8.03506 53.3636 4.40701 49.529 4.423 43.9064V43.8929C4.50617 39.5522 5.1272 36.3811 5.6761 33.585L5.67961 33.567C5.81368 32.8855 5.94301 32.2278 6.02328 31.7905C6.12533 31.2347 6.22136 30.6701 6.30816 30.0729C6.89487 26.0399 6.35352 22.044 5.50522 18.7232C4.65106 15.3796 3.49172 12.7327 2.84854 11.4005L2.59375 10.8729L10.6124 2.10605H53.4948L61.5125 10.8729L61.2578 11.4005C60.6145 12.7328 59.4551 15.3796 58.601 18.7232C57.7527 22.044 57.2115 26.0398 57.7981 30.0729ZM47.1486 42.4598H49.4424L50.3958 37.4546H48.9961L50.5996 29.035H51.9992L52.4353 26.7457H46.7586L46.3225 29.035H47.7223L46.1189 37.4546H41.4919L43.0957 29.035H44.4952L44.9312 26.7457H39.2544L38.8188 29.035H40.2183L38.6148 37.4546H37.2153L36.7792 39.7438H47.6659L47.1486 42.4598H47.1486ZM34.3093 31.072H36.5256L37.3495 26.7459H27.0072L26.1833 31.072H28.3994L28.7504 29.229H30.2667L28.7002 37.4545H27.3006L26.8645 39.7438H32.5412L32.977 37.4545H31.5775L33.144 29.229H34.6602L34.3093 31.072ZM16.3028 39.9766C17.9942 39.9766 21.7421 39.1813 23.6984 35.34H20.6268C19.6904 36.5815 18.2855 37.2219 16.8274 37.2219C14.5723 37.2219 13.2062 35.5147 13.6309 33.2837C14.0559 31.0525 16.0871 29.2677 18.3423 29.2677C19.7419 29.2677 21.0048 29.9857 21.4694 31.3242H23.9771L24.849 26.7457H22.594L22.3981 27.7739C21.6322 26.998 20.3638 26.513 18.8667 26.513C15.1148 26.513 11.3816 29.5783 10.6761 33.2837C9.98143 36.9308 12.5703 39.9766 16.3028 39.9766ZM9.68145 23.7871H22.1749L30.3336 3.83969H11.3747L4.66035 11.1805C5.35779 12.6897 6.40152 15.2173 7.18817 18.2965C8.08194 21.7953 8.65014 26.0195 8.02506 30.3167C7.9417 30.8902 7.83961 31.4861 7.7265 32.1021C7.59305 32.8287 7.49052 33.3516 7.38619 33.8819L7.38266 33.8998C6.84415 36.6427 6.23366 39.7529 6.15351 43.9164C6.14416 48.7963 9.38655 52.1865 12.6489 54.3617C15.9876 56.5879 19.3431 57.5495 19.4099 57.5686L19.4371 57.5788C19.5094 57.6022 19.8135 57.7033 20.2967 57.8843L27.2306 43.5071H7.68821C7.7996 39.5358 8.38441 36.5464 8.90407 33.8998C9.14448 32.6761 9.3718 31.5202 9.5466 30.3194C9.87081 28.09 9.87601 25.8841 9.68145 23.7871ZM21.4946 58.357C22.8144 58.9027 24.645 59.7381 26.6314 60.8781C28.3968 61.8912 30.286 63.1435 32.053 64.6447C33.8106 63.1514 35.6888 61.9045 37.4436 60.8949C41.2026 58.7322 44.3801 57.6697 44.5935 57.5995L44.6342 57.5884L44.6345 57.5897C45.0579 57.4669 57.9745 53.6774 57.9523 43.8898C57.8725 39.7534 57.2623 36.6448 56.7242 33.9034L56.7268 33.9029L56.7232 33.8988C56.6178 33.3624 56.5146 32.8375 56.3797 32.1021C56.2666 31.486 56.1646 30.8902 56.0812 30.3166C55.4561 26.0194 56.0243 21.7953 56.9181 18.2965C57.7046 15.2172 58.7485 12.6897 59.4459 11.1805L52.7324 3.83967H37.9803L30.3381 17.286L46.4077 10.1347L39.3545 23.787H54.642C54.4471 25.8841 54.4526 28.09 54.7768 30.3194C54.9523 31.5243 55.1894 32.7319 55.4207 33.9061C55.941 36.5579 56.5275 39.5558 56.6356 43.5071H29.1665L21.4946 58.357ZM36.7413 23.7871L39.4587 18.1528L22.7297 23.7871H36.7413Z"
            fill="white"></path>
        <path
            d="M80.0893 9.91906C78.4093 9.91906 77.3679 11.1937 77.3679 13.3269C77.3679 15.4467 78.4093 16.735 80.1169 16.735C81.5052 16.735 82.5184 15.8761 83.032 14.2413L84.7954 15.0864C84.0176 17.3028 82.3241 18.5081 79.9361 18.5081C76.9383 18.5081 74.7305 16.3333 74.7305 13.3685C74.7305 10.4317 76.8126 8.22892 79.77 8.22892C81.0749 8.22892 82.0881 8.63061 82.8377 9.46188V8.40893H84.3235V11.831H82.8377C82.1163 10.5148 81.2692 9.91906 80.0893 9.91906Z"
            fill="#3F4A63"></path>
        <path
            d="M88.8083 9.94681V16.6935H89.8772V18.3006H85.3789V16.6935H86.4485V9.94681H85.3789V8.40899H95.1944V9.94681H94.1255V16.6935H95.1944V18.3006H90.6967V16.6935H91.765V9.94681H88.8083Z"
            fill="#3F4A63"></path>
        <path
            d="M102.275 15.0727H104.066V18.3004H95.7227V16.6937H96.7916V9.947H95.7227V8.40886H104.066V11.4706H102.275V9.947H99.1514V12.3714H101.748V13.992H99.1514V16.6937H102.275V15.0727Z"
            fill="#3F4A63"></path>
        <path
            d="M111.132 9.94681H110.063V8.40899H114.561V9.94681H113.492V16.6935H114.561V20.3231H112.687V18.3006H104.746V16.6935H105.815V9.94681H104.746V8.40899H109.244V9.94681H108.175V16.6935H111.132V9.94681Z"
            fill="#3F4A63"></path>
        <path
            d="M115.227 18.3005V16.6935H116.296V9.94668H115.227V8.40893H119.725V9.94668H118.656V14.6988L121.724 8.40893H125.209V9.94668H124.139V16.6935H125.209V18.3005H120.71V16.6935H121.779V12.0803L118.712 18.3005H115.227Z"
            fill="#3F4A63"></path>
        <path
            d="M132.179 13.5486L131.11 9.89145L130.027 13.5486H132.179ZM125.945 16.6936H127.028L129.222 9.94687H127.875V8.40905H134.498V9.94687H133.304L135.511 16.6936H136.414V18.3007H132.012V16.6936H133.068L132.526 14.8371H129.652L129.125 16.6936H130.222V18.3007H125.945V16.6936Z"
            fill="#3F4A63"></path>
        <path
            d="M140.648 9.94681V13.3547C140.648 17.3308 139.593 18.5084 137.913 18.5084C137.428 18.5084 137.108 18.4391 136.803 18.3835V16.6242C136.955 16.6935 137.164 16.7351 137.566 16.7351C138.261 16.7351 138.705 16.2779 138.705 13.7287V9.94681H137.636V8.40899H146.645V9.94681H145.577V16.6935H146.645V18.3006H142.147V16.6935H143.216V9.94681H140.648Z"
            fill="#3F4A63"></path>
        <path
            d="M151.435 16.6935C152.601 16.6935 153.142 16.167 153.142 15.2249C153.142 14.2828 152.504 13.7844 151.435 13.7844H150.769V16.6935H151.435ZM150.769 12.177H152.282C154.517 12.177 155.697 13.3824 155.697 15.2249C155.697 17.0537 154.531 18.3006 152.268 18.3006H147.34V16.6935H148.409V9.94681H147.34V8.40899H151.838V9.94681H150.769V12.177Z"
            fill="#3F4A63"></path>
        <path
            d="M159.876 13.8259V16.6933H160.945V18.3004H156.447V16.6933H157.516V9.94668H156.447V8.40893H160.945V9.94668H159.876V12.2188H162.833V9.94668H161.764V8.40893H166.262V9.94668H165.193V16.6933H166.262V18.3004H161.764V16.6933H162.833V13.8259H159.876Z"
            fill="#3F4A63"></path>
        <path
            d="M179.146 16.6935H180.215V18.3006H175.717V16.6935H176.786V9.94681H175.717V8.40899H180.215V9.94681H179.146V16.6935ZM170.955 16.6935C172.121 16.6935 172.663 16.167 172.663 15.2249C172.663 14.2828 172.024 13.7845 170.955 13.7845H170.289V16.6935H170.955ZM170.289 12.177H171.802C174.037 12.177 175.217 13.3824 175.217 15.2249C175.217 17.0537 174.05 18.3006 171.788 18.3006H166.859V16.6935H167.929V9.94681H166.859V8.40899H171.358V9.94681H170.289V12.177Z"
            fill="#3F4A63"></path>
        <path
            d="M184.961 5.30585C185.031 5.95706 185.433 6.28956 186.003 6.28956C186.572 6.28956 186.96 5.97085 187.03 5.30585H188.432C188.432 6.5389 187.627 7.5503 186.003 7.5503C184.378 7.5503 183.573 6.5389 183.573 5.30585H184.961ZM180.811 18.3006V16.6935H181.879V9.94674H180.811V8.40893H185.309V9.94674H184.239V14.6987L187.308 8.40893H190.792V9.94674H189.723V16.6935H190.792V18.3006H186.294V16.6935H187.363V12.0803L184.295 18.3006H180.811Z"
            fill="#3F4A63"></path>
        <path
            d="M74.7305 28.8855V25.0341H83.0878V28.8855H81.4776V26.5718H80.0893V33.3185H81.1583V34.9256H76.66V33.3185H77.7289V26.5718H76.3406V28.8855H74.7305Z"
            fill="#3F4A63"></path>
        <path
            d="M90.1544 31.6978H91.9454V34.9255H83.6016V33.3187H84.6712V26.572H83.6016V25.0339H91.9454V28.0957H90.1544V26.572H87.0309V28.9965H89.6267V30.6171H87.0309V33.3187H90.1544V31.6978Z"
            fill="#3F4A63"></path>
        <path
            d="M92.5156 33.3186H93.8347L96.2778 29.8273L94.0149 26.5718H92.9042V25.0341H97.4853V26.5718H96.6106L97.8886 28.3591L99.1236 26.5718H98.4157V25.0341H102.303V26.5718H101.234L98.9152 29.8688L101.331 33.3186H102.622V34.9256H97.777V33.3186H98.735L97.3185 31.31L95.8892 33.3186H96.7498V34.9256H92.5156V33.3186Z"
            fill="#3F4A63"></path>
        <path
            d="M106.579 30.451V33.3185H107.649V34.9256H103.15V33.3185H104.219V26.5718H103.15V25.0341H107.649V26.5718H106.579V28.8439H109.537V26.5718H108.468V25.0341H112.965V26.5718H111.896V33.3185H112.965V34.9256H108.468V33.3185H109.537V30.451H106.579Z"
            fill="#3F4A63"></path>
        <path
            d="M121.392 29.9522C121.392 27.8602 120.337 26.5582 118.866 26.5582C117.394 26.5582 116.339 27.8602 116.339 29.9522C116.339 32.0442 117.408 33.3463 118.866 33.3463C120.323 33.3463 121.392 32.0442 121.392 29.9522ZM124.03 29.9938C124.03 33.0275 121.864 35.1334 118.866 35.1334C115.867 35.1334 113.701 32.9724 113.701 29.9938C113.701 27.0013 115.839 24.8538 118.949 24.8538C121.919 24.8538 124.03 26.9459 124.03 29.9938Z"
            fill="#3F4A63"></path>
        <path
            d="M128.347 26.5718V29.9797C128.347 33.9558 127.293 35.1335 125.613 35.1335C125.127 35.1335 124.808 35.0642 124.502 35.0085V33.2493C124.655 33.3186 124.864 33.3601 125.266 33.3601C125.96 33.3601 126.404 32.9029 126.404 30.3537V26.5718H125.335V25.0341H134.345V26.5718H133.276V33.3186H134.345V34.9256H129.847V33.3186H130.916V26.5718H128.347Z"
            fill="#3F4A63"></path>
        <path
            d="M142.869 29.9522C142.869 27.8602 141.814 26.5582 140.342 26.5582C138.871 26.5582 137.816 27.8602 137.816 29.9522C137.816 32.0442 138.885 33.3463 140.342 33.3463C141.8 33.3463 142.869 32.0442 142.869 29.9522ZM145.506 29.9938C145.506 33.0275 143.341 35.1334 140.342 35.1334C137.344 35.1334 135.178 32.9724 135.178 29.9938C135.178 27.0013 137.316 24.8538 140.426 24.8538C143.397 24.8538 145.506 26.9459 145.506 29.9938Z"
            fill="#3F4A63"></path>
        <path
            d="M149.658 33.3186H150.727V34.9256H146.229V33.3186H147.297V26.5718H146.229V25.0341H154.281V28.0955H152.504V26.5718H149.658V33.3186Z"
            fill="#3F4A63"></path>
        <path
            d="M154.781 34.9256V33.3186H155.85V26.5718H154.781V25.0341H159.28V26.5718H158.211V31.3239L161.278 25.0341H164.763V26.5718H163.695V33.3186H164.763V34.9256H160.265V33.3186H161.334V28.7055L158.266 34.9256H154.781Z"
            fill="#3F4A63"></path>
        <path
            d="M174.149 33.3186H175.218V34.9256H170.72V33.3186H171.788V30.5062C171.039 30.6312 170.414 30.7278 169.72 30.7278C167.749 30.7278 166.471 29.8412 166.471 27.8877V26.5718H165.402V25.0341H169.901V26.5718H168.832V27.6937C168.832 28.6638 169.234 28.9545 170.206 28.9545C170.734 28.9545 171.233 28.8717 171.788 28.7328V26.5718H170.72V25.0341H175.218V26.5718H174.149V33.3186Z"
            fill="#3F4A63"></path>
        <path
            d="M182.436 31.6978H184.227V34.9255H175.883V33.3187H176.952V26.572H175.883V25.0339H184.227V28.0957H182.436V26.572H179.312V28.9965H181.908V30.6171H179.312V33.3187H182.436V31.6978Z"
            fill="#3F4A63"></path>
        <path
            d="M190.391 26.5443C188.712 26.5443 187.671 27.8189 187.671 29.9522C187.671 32.0719 188.712 33.3603 190.42 33.3603C191.808 33.3603 192.821 32.5013 193.335 30.8665L195.097 31.7116C194.32 33.928 192.627 35.1333 190.239 35.1333C187.24 35.1333 185.033 32.9586 185.033 29.9937C185.033 27.0569 187.115 24.8541 190.072 24.8541C191.377 24.8541 192.391 25.2556 193.14 26.0871V25.0342H194.626V28.4562H193.14C192.418 27.14 191.571 26.5443 190.391 26.5443Z"
            fill="#3F4A63"></path>
        <path
            d="M200.97 33.3186H202.025L199.249 29.6887L202.261 26.5719H201.178V25.0341H205.273V26.5719H204.454L201.733 29.412L204.815 33.3186H205.884V34.9257H200.97V33.3186ZM199.179 33.3186H200.248V34.9256H195.75V33.3186H196.819V26.5718H195.75V25.0341H200.248V26.5718H199.179V33.3186Z"
            fill="#3F4A63"></path>
        <path
            d="M206.398 34.9256V33.3186H207.467V26.5718H206.398V25.0341H210.897V26.5718H209.828V31.3239L212.896 25.0341H216.38V26.5718H215.312V33.3186H216.38V34.9256H211.882V33.3186H212.951V28.7055L209.883 34.9256H206.398Z"
            fill="#3F4A63"></path>
        <path
            d="M221.169 21.9309C221.238 22.5817 221.64 22.9143 222.21 22.9143C222.779 22.9143 223.168 22.5956 223.237 21.9309H224.639C224.639 23.164 223.835 24.175 222.21 24.175C220.585 24.175 219.781 23.164 219.781 21.9309H221.169ZM217.018 34.9256V33.3185H218.087V26.5718H217.018V25.034H221.516V26.5718H220.447V31.3238L223.515 25.034H226.999V26.5718H225.93V33.3185H226.999V34.9256H222.501V33.3185H223.57V28.7054L220.503 34.9256H217.018Z"
            fill="#3F4A63"></path>
        <path
            d="M81.1166 43.1971H80.0477V41.6592H84.5453V43.1971H83.4764V49.9438H84.5453V53.5733H82.671V51.5509H74.7305V49.9438H75.7994V43.1971H74.7305V41.6592H79.2281V43.1971H78.1598V49.9438H81.1166V43.1971Z"
            fill="#3F4A63"></path>
        <path
            d="M91.7658 48.323H93.5567V51.5507H85.2129V49.9439H86.2818V43.1973H85.2129V41.6591H93.5567V44.7209H91.7658V43.1973H88.6416V45.6217H91.238V47.2423H88.6416V49.9439H91.7658V48.323Z"
            fill="#3F4A63"></path>
        <path
            d="M97.6657 47.0762V49.9436H98.7346V51.5507H94.2363V49.9436H95.3059V43.1969H94.2363V41.6592H98.7346V43.1969H97.6657V45.469H100.622V43.1969H99.5535V41.6592H104.052V43.1969H102.983V49.9436H104.052V51.5507H99.5535V49.9436H100.622V47.0762H97.6657Z"
            fill="#3F4A63"></path>
        <path
            d="M104.51 45.5106V41.6592H112.867V45.5106H111.257V43.1969H109.869V49.9436H110.938V51.5507H106.439V49.9436H107.508V43.1969H106.12V45.5106H104.51Z"
            fill="#3F4A63"></path>
        <path
            d="M116.81 46.2724H117.324C118.698 46.2724 119.337 45.8567 119.337 44.7349C119.337 43.6124 118.698 43.1971 117.324 43.1971H116.81V46.2724ZM116.81 49.9438H117.879V51.551H113.381V49.9438H114.45V43.1971H113.381V41.6593H118.087C120.669 41.6593 121.877 42.5734 121.877 44.7349C121.877 46.9097 120.669 47.8934 118.087 47.8934H116.81V49.9438Z"
            fill="#3F4A63"></path>
    </g>
    <defs>
        <clipPath id="clip0_1534_1820">
            <rect width="227" height="70" fill="white"></rect>
        </clipPath>
    </defs>
</svg>